<?xml version="1.0" encoding="UTF-8"?><svg id="Vector" xmlns="http://www.w3.org/2000/svg" xmlns:xlink="http://www.w3.org/1999/xlink" viewBox="0 0 1200 800"><defs><style>.cls-1{fill:#eaa528;}.cls-2{fill:#231f20;}.cls-3{fill:url(#radial-gradient);}</style><radialGradient id="radial-gradient" cx="620.24" cy="277.94" fx="643.85" fy="250.18" r="118.61" gradientUnits="userSpaceOnUse"><stop offset="0" stop-color="#fff"/><stop offset=".14" stop-color="#fcf4f9"/><stop offset="1" stop-color="#e1ae4a"/></radialGradient></defs><path class="cls-1" d="m225.44,363.02C259.37,164,369.88,18,592.1,18c345.68,8.95,369.14,344.75,369.14,344.75,0,0-102.78-234.28-351.85-227.16-148.15,2.47-237.82,106.17-255.11,228.4-41.99,0-85.96,0-128.84-.97Z"/><ellipse class="cls-3" cx="620.24" cy="277.94" rx="120.09" ry="117.12"/><rect class="cls-1" x="7.78" y="407.84" width="1178.33" height="61.05"/><rect class="cls-1" x="7.78" y="705.97" width="1178.33" height="61.05"/><rect class="cls-2" x="35.29" y="486.16" width="43.1" height="199.08"/><path class="cls-2" d="m38.29,489.16h37.1v193.08h-37.1v-193.08Z"/><polygon class="cls-2" points="300.07 685.24 300.07 550.18 240.01 685.24 220.26 685.24 160.52 550.25 160.52 685.24 117.42 685.24 117.42 486.16 174.7 486.16 230.15 611.72 285.9 486.16 343.17 486.16 343.17 685.24 300.07 685.24"/><path class="cls-2" d="m303.07,536.05l-65.01,146.18h-15.86l-64.69-146.18v146.18h-37.1v-193.08h52.32l57.4,129.97,57.71-129.97h52.32v193.08h-37.1v-146.18Z"/><path class="cls-2" d="m457.51,688.71c-40.44,0-59.7-2.39-87.25-15.83l-2.52-1.23,14.94-36.79,2.92,1.51c21.75,11.23,44.42,16.24,73.5,16.24s39.49-12.57,39.49-23.34c0-14.88-21.03-19.85-45.37-25.62l-.52-.12c-34.5-7.8-77.46-17.51-77.46-60.81,0-16.61,7.94-31.72,22.36-42.56,14.69-11.05,34.64-16.88,57.69-16.88,34.23,0,51.19,3.36,78.91,15.65l2.48,1.1-11.32,34.71-3.12-1.56c-20.28-10.17-49.52-13.79-70.13-13.79s-32.83,8.25-32.83,21.03,20.38,17.31,43.98,22.77l.31.07c35.09,8.15,78.75,18.3,78.75,62.84,0,17.89-7.12,33.17-20.6,44.19-14.97,12.24-36.57,18.44-64.21,18.44Z"/><path class="cls-2" d="m384.22,639.04c22.11,11.42,45.38,16.57,74.87,16.57s42.49-13.61,42.49-26.34c0-17.37-22.51-22.58-48.2-28.66-34.56-7.82-75.15-17.08-75.15-57.89,0-31.84,30.76-56.45,77.06-56.45,32.98,0,49.5,2.9,77.7,15.39l-9.4,28.82c-20.31-10.18-49.27-14.11-71.47-14.11s-35.83,9.55-35.83,24.03,21.56,19.97,46.61,25.76c34.88,8.11,76.42,17.95,76.42,59.92,0,32.13-24.73,59.63-81.81,59.63-39,0-58.4-2.09-85.94-15.52l12.65-31.15Z"/><rect class="cls-2" x="570.57" y="486.16" width="43.1" height="199.08"/><path class="cls-2" d="m573.57,489.16h37.1v193.08h-37.1v-193.08Z"/><polygon class="cls-2" points="835.35 685.24 835.35 550.18 775.29 685.24 755.54 685.24 695.8 550.25 695.8 685.24 652.7 685.24 652.7 486.16 709.98 486.16 765.43 611.72 821.18 486.16 878.45 486.16 878.45 685.24 835.35 685.24"/><path class="cls-2" d="m838.35,536.05l-65.01,146.18h-15.86l-64.69-146.18v146.18h-37.1v-193.08h52.32l57.4,129.97,57.71-129.97h52.32v193.08h-37.1v-146.18Z"/><path class="cls-2" d="m917.49,685.24v-199.08h107.01c19.11,0,35.22,5.23,46.6,15.14,10.74,9.34,16.65,22.51,16.65,37.07,0,22.54-13.29,37.4-28.85,44.06,19.15,7.38,32.97,26.57,32.97,47.71,0,33.48-25.33,55.11-64.52,55.11h-109.87Zm100.99-35.82c18.65,0,29.34-8.72,29.34-23.92,0-10.9-7.69-23.63-29.34-23.63h-57.88v47.55h57.88Zm-1.58-83.37c16.54,0,26.81-8.39,26.81-21.89s-10.27-22.18-26.81-22.18h-56.3v44.08h56.3Z"/><path class="cls-2" d="m920.49,489.16h104.01c38.69,0,60.25,22,60.25,49.21,0,24.32-17.12,40.53-36.78,44.29,22.51,3.18,40.91,23.74,40.91,47.47,0,29.82-21.88,52.11-61.52,52.11h-106.87v-193.08Zm96.4,79.89c19.03,0,29.81-10.42,29.81-24.89s-10.78-25.18-29.81-25.18h-59.3v50.08h59.3Zm1.58,83.37c20.29,0,32.34-10.13,32.34-26.92,0-14.47-11.1-26.63-32.34-26.63h-60.88v53.55h60.88Z"/><rect class="cls-2" x="1122.97" y="486.16" width="43.1" height="199.08"/><path class="cls-2" d="m1125.97,489.16h37.1v193.08h-37.1v-193.08Z"/></svg>